<svg version="1.2" xmlns="http://www.w3.org/2000/svg" viewBox="0 0 1280 720" width="current">
	<title>Header</title>
	<style>
		.s0 { fill: #ffffff } 
	</style>
	<path id="Header" class="s0" aria-label="Header"  d="m186.4 333.6h-47.5v80.1h47.5q23.9 0 35.3-9.8 11.6-10 11.6-30.4 0-20.5-11.6-30.1-11.4-9.8-35.3-9.8zm-3.7-90h-43.8v65.9h43.8q21.7 0 32.3-8 10.7-8.2 10.7-24.9 0-16.6-10.7-24.8-10.6-8.2-32.3-8.2zm-73.4 194.4v-218.7h75.6q33.9 0 52.2 14.1 18.3 14 18.3 40 0 20-9.4 31.9-9.4 11.9-27.5 14.8 21.8 4.7 33.8 19.6 12.2 14.8 12.2 37.1 0 29.3-19.9 45.2-20 16-56.7 16zm268.2-145.2q-21.7 0-34.3 17-12.6 16.9-12.6 46.3 0 29.5 12.5 46.5 12.5 16.8 34.4 16.8 21.5 0 34.1-17 12.6-17 12.6-46.3 0-29.1-12.6-46.1-12.6-17.2-34.1-17.2zm0-22.8q35.1 0 55.2 22.8 20.1 22.9 20.1 63.3 0 40.3-20.1 63.3-20.1 22.8-55.2 22.8-35.3 0-55.4-22.8-19.9-23-19.9-63.3 0-40.4 19.9-63.3 20.1-22.8 55.4-22.8zm256.3 69v99h-26.9v-98.1q0-23.3-9.1-34.9-9.1-11.6-27.3-11.6-21.8 0-34.4 13.9-12.6 14-12.6 38v92.7h-27.1v-164.1h27.1v25.5q9.7-14.8 22.7-22.1 13.2-7.3 30.3-7.3 28.3 0 42.8 17.6 14.5 17.4 14.5 51.4zm158.4-60.2v25.5q-11.5-5.9-23.8-8.8-12.3-3-25.4-3-20.1 0-30.2 6.2-10 6.1-10 18.5 0 9.3 7.2 14.7 7.2 5.3 28.9 10.2l9.2 2q28.7 6.2 40.7 17.4 12.2 11.2 12.2 31.2 0 22.9-18.2 36.2-18 13.3-49.7 13.3-13.1 0-27.5-2.4-14.2-2.7-30-7.8v-27.8q14.9 7.7 29.4 11.7 14.5 3.8 28.7 3.8 19.1 0 29.3-6.5 10.3-6.5 10.3-18.4 0-11-7.5-16.9-7.3-5.8-32.4-11.2l-9.3-2.2q-25.1-5.3-36.2-16.1-11.2-11-11.2-30.1 0-23.1 16.4-35.7 16.5-12.6 46.6-12.6 15 0 28.2 2.2 13.1 2.2 24.3 6.6zm188.1 60.2v99h-27v-98.1q0-23.3-9.1-34.9-9.1-11.6-27.2-11.6-21.8 0-34.4 13.9-12.6 14-12.6 38v92.7h-27.1v-164.1h27.1v25.5q9.6-14.8 22.7-22.1 13.1-7.3 30.3-7.3 28.3 0 42.8 17.6 14.5 17.4 14.5 51.4zm161.7 15.1q0-29.3-12.2-45.4-12-16.2-33.8-16.2-21.7 0-33.9 16.2-12 16.1-12 45.4 0 29.1 12 45.2 12.2 16.1 33.9 16.1 21.8 0 33.8-16.1 12.2-16.1 12.2-45.2zm26.9-80.2v143.7q0 41.9-18.6 62.4-18.6 20.4-57 20.4-14.2 0-26.8-2-12.6-2.2-24.4-6.6v-26.3q11.8 6.5 23.4 9.6 11.6 3 23.6 3 26.5 0 39.7-13.7 13.2-13.9 13.2-41.9v-13.4q-8.4 14.5-21.4 21.7-13 7.2-31.2 7.2-30.2 0-48.6-23-18.5-23-18.5-60.9 0-38.1 18.5-61.1 18.4-23 48.6-23 18.2 0 31.2 7.2 13 7.1 21.4 21.6v-24.9z"/>
</svg>